<?xml version="1.0" encoding="UTF-8"?>
<svg id="Calque_2" data-name="Calque 2" xmlns="http://www.w3.org/2000/svg" viewBox="0 0 78.61 142.68">
  <defs>
    <style>
      .cls-1 {
        opacity: .19;
      }

      .cls-1, .cls-2 {
        stroke-width: 0px;
      }

      .cls-2 {
        fill: #fff;
      }
    </style>
  </defs>
  <g id="Calque_1-2" data-name="Calque 1">
    <g id="layer1">
      <g id="g4182">
        <g id="g5747">
          <path id="path4155" class="cls-2" d="m50.58.11l-.06,31.53-.06,31.53-2.59-7.32v-.02l-3.36,70.19c3.3,9.31,5.07,14.28,5.09,14.3.02.02,1.9.13,4.17.24,6.87.34,15.39,1.07,21.86,1.88,1.5.19,2.78.28,2.87.21s.11-32.17.09-71.34l-.06-71.21h-27.96Z"/>
          <path id="path4157" class="cls-2" d="m0,.02v71.28C0,110.51.04,142.62.09,142.67s2.48-.19,5.41-.51c2.93-.32,6.96-.73,8.97-.9,3.08-.26,12.31-.84,13.36-.86.32,0,.34-1.6.38-30.2l.06-30.2,2.23,6.31c.34.98.45,1.28.79,2.23l3.36-70.17c-.71-2.01-.34-.96-1.14-3.25C30.76,7.38,28.43.83,28.34.53l-.19-.53H0v.02Z"/>
          <path id="path5715" class="cls-2" d="m50.58.11l-.06,31.53-.06,31.53-2.59-7.32v-.02l-3.36,70.19c3.3,9.31,5.07,14.28,5.09,14.3.02.02,1.9.13,4.17.24,6.87.34,15.39,1.07,21.86,1.88,1.5.19,2.78.28,2.87.21s.11-32.17.09-71.34l-.06-71.21h-27.96Z"/>
          <path id="path5717" class="cls-2" d="m0,.02v71.28C0,110.51.04,142.62.09,142.67s2.48-.19,5.41-.51c2.93-.32,6.96-.73,8.97-.9,3.08-.26,12.31-.84,13.36-.86.32,0,.34-1.6.38-30.2l.06-30.2,2.23,6.31c.34.98.45,1.28.79,2.23l3.36-70.17c-.71-2.01-.34-.96-1.14-3.25C30.76,7.38,28.43.83,28.34.53l-.19-.53H0v.02Z"/>
          <path id="path5719" class="cls-1" d="m0,.02v40.01l28.19,74.77c0-1.71,0-2.65.02-4.6l.06-30.2,2.23,6.31c12.39,35.13,19.05,53.98,19.09,54.01.02.02,1.9.13,4.17.24,6.87.34,15.39,1.07,21.86,1.88,1.5.19,2.78.28,2.87.21.06-.06.09-15.78.09-37.99L50.54,24l-.02,7.64-.06,31.53-2.59-7.32c-2.53-7.15-4.22-11.94-14.41-40.73C30.72,7.38,28.4.83,28.3.53l-.19-.53H0v.02H0Z"/>
          <path id="path5721" class="cls-2" d="m0,.02l28.25,80.05v-.04l2.23,6.31c12.41,35.11,19.07,53.96,19.11,54,.02.02,1.9.13,4.17.24,6.87.34,15.39,1.07,21.86,1.88,1.48.19,2.78.28,2.85.21l-28-79.5v.02l-2.59-7.32c-2.53-7.15-4.22-11.94-14.41-40.73C30.72,7.38,28.4.83,28.3.53l-.19-.53h-14.06L0,.02H0Z"/>
        </g>
      </g>
    </g>
  </g>
</svg>