<?xml version="1.0" encoding="UTF-8"?>
<svg id="Calque_2" data-name="Calque 2" xmlns="http://www.w3.org/2000/svg" xmlns:xlink="http://www.w3.org/1999/xlink" viewBox="0 0 198.79 181.98">
  <defs>
    <style>
      .cls-1 {
        stroke-miterlimit: 10;
        stroke-width: 4px;
      }

      .cls-1, .cls-2 {
        fill: none;
        stroke: #000;
      }

      .cls-3 {
        mask: url(#mask-2);
      }

      .cls-4 {
        mask: url(#mask-3);
      }

      .cls-5 {
        mask: url(#mask-5);
      }

      .cls-6 {
        mask: url(#mask-4);
      }

      .cls-7 {
        fill: #d9d9d9;
      }

      .cls-7, .cls-8 {
        stroke-width: 0px;
      }

      .cls-9 {
        mask: url(#mask-1);
      }

      .cls-10 {
        mask: url(#mask);
      }

      .cls-8 {
        fill: #6564fe;
      }
    </style>
    <mask id="mask" x="98.39" y="0" width="100.4" height="179.73" maskUnits="userSpaceOnUse">
      <g id="mask0_85_302" data-name="mask0 85 302">
        <path class="cls-7" d="m178.3,2.52h-39.45l-19.73,34.9,39.45-.76-51.59,88.77-7.59,14.42,34.14,19.73,44.76-88.01,18.97-34.9L178.3,2.52Z"/>
        <path class="cls-2" d="m178.3,2.52l-19.73,34.14M178.3,2.52h-39.45l-19.73,34.9M178.3,2.52l18.97,34.14-18.97,34.9m-19.73-34.9l-39.45.76m39.45-.76l19.73,34.9m-19.73-34.9l-51.59,88.77-7.59,14.42,34.14,19.73m-14.42-122.15l-19.73,61.45m78.9-27.31l-44.76,88.01m0,0l-34.9,19.73"/>
      </g>
    </mask>
    <mask id="mask-1" x="97.43" y="2.02" width="100.41" height="177.71" maskUnits="userSpaceOnUse">
      <g id="mask1_85_302" data-name="mask1 85 302">
        <path class="cls-7" d="m178.3,2.52h-39.45l-19.73,34.9,39.45-.76-51.59,88.77-7.59,14.42,34.14,19.73,44.76-88.01,18.97-34.9L178.3,2.52Z"/>
        <path class="cls-2" d="m178.3,2.52l-19.73,34.14M178.3,2.52h-39.45l-19.73,34.9M178.3,2.52l18.97,34.14-18.97,34.9m-19.73-34.9l-39.45.76m39.45-.76l19.73,34.9m-19.73-34.9l-51.59,88.77-7.59,14.42,34.14,19.73m-14.42-122.15l-19.73,61.45m78.9-27.31l-44.76,88.01m0,0l-34.9,19.73"/>
      </g>
    </mask>
    <mask id="mask-2" x="98.39" y="1.28" width="99.45" height="178.45" maskUnits="userSpaceOnUse">
      <g id="mask2_85_302" data-name="mask2 85 302">
        <path class="cls-8" d="m178.3,2.52h-39.45l-19.73,34.9,39.45-.76-51.59,88.77-7.59,14.42,34.14,19.73,44.76-88.01,18.97-34.9L178.3,2.52Z"/>
        <path class="cls-2" d="m178.3,2.52l-19.73,34.14M178.3,2.52h-39.45l-19.73,34.9M178.3,2.52l18.97,34.14-18.97,34.9m-19.73-34.9l-39.45.76m39.45-.76l19.73,34.9m-19.73-34.9l-51.59,88.77-7.59,14.42,34.14,19.73m-14.42-122.15l-19.73,61.45m78.9-27.31l-44.76,88.01m0,0l-34.9,19.73"/>
      </g>
    </mask>
    <mask id="mask-3" x=".95" y="2.02" width="100.41" height="177.71" maskUnits="userSpaceOnUse">
      <g id="mask3_85_302" data-name="mask3 85 302">
        <path class="cls-7" d="m20.49,2.52h39.45l19.73,34.9-39.45-.76,51.59,88.77,7.59,14.42-34.14,19.73L20.49,71.56,1.52,36.66,20.49,2.52Z"/>
        <path class="cls-2" d="m20.49,2.52l19.73,34.14M20.49,2.52h39.45l19.73,34.9M20.49,2.52L1.52,36.66l18.97,34.9m19.73-34.9l39.45.76m-39.45-.76l-19.73,34.9m19.73-34.9l51.59,88.77,7.59,14.42-34.14,19.73m14.42-122.15l19.73,61.45m-78.9-27.31l44.76,88.01m0,0l34.9,19.73"/>
      </g>
    </mask>
    <mask id="mask-4" x=".95" y="1.28" width="99.45" height="178.45" maskUnits="userSpaceOnUse">
      <g id="mask4_85_302" data-name="mask4 85 302">
        <path class="cls-8" d="m20.49,2.52h39.45l19.73,34.9-39.45-.76,51.59,88.77,7.59,14.42-34.14,19.73L20.49,71.56,1.52,36.66,20.49,2.52Z"/>
        <path class="cls-2" d="m20.49,2.52l19.73,34.14M20.49,2.52h39.45l19.73,34.9M20.49,2.52L1.52,36.66l18.97,34.9m19.73-34.9l39.45.76m-39.45-.76l-19.73,34.9m19.73-34.9l51.59,88.77,7.59,14.42-34.14,19.73m14.42-122.15l19.73,61.45m-78.9-27.31l44.76,88.01m0,0l34.9,19.73"/>
      </g>
    </mask>
    <mask id="mask-5" x="0" y="0" width="100.4" height="179.73" maskUnits="userSpaceOnUse">
      <g id="mask5_85_302" data-name="mask5 85 302">
        <path class="cls-7" d="m20.49,2.52h39.45l19.73,34.9-39.45-.76,51.59,88.77,7.59,14.42-34.14,19.73L20.49,71.56,1.52,36.66,20.49,2.52Z"/>
        <path class="cls-2" d="m20.49,2.52l19.73,34.14M20.49,2.52h39.45l19.73,34.9M20.49,2.52L1.52,36.66l18.97,34.9m19.73-34.9l39.45.76m-39.45-.76l-19.73,34.9m19.73-34.9l51.59,88.77,7.59,14.42-34.14,19.73m14.42-122.15l19.73,61.45m-78.9-27.31l44.76,88.01m0,0l34.9,19.73"/>
      </g>
    </mask>
  </defs>
  <g id="Calque_1-2" data-name="Calque 1">
    <path class="cls-1" d="m157.06,37.42l-37.93.76-19.73,61.45-.76,40.21,58.42-102.42Z"/>
    <path class="cls-1" d="m132.02,159.57l-32.62-18.97-.76,18.97v18.97l33.38-18.97Z"/>
    <g class="cls-10">
      <path class="cls-1" d="m196.51,36.66l-18.21-32.62-18.97,32.62,18.97,33.38,18.21-33.38Z"/>
    </g>
    <g class="cls-9">
      <path class="cls-1" d="m177.54,71.56l-18.97-33.38-58.42,101.66,32.62,18.97,44.76-87.25Z"/>
    </g>
    <g class="cls-3">
      <path class="cls-1" d="m176.79,3.28h-37.93l-18.97,33.38,37.93-.36L176.79,3.28Z"/>
    </g>
    <path class="cls-1" d="m41.73,37.42l37.93.76,19.73,61.45.76,40.21L41.73,37.42Z"/>
    <path class="cls-1" d="m66.77,159.57l32.62-18.97.76,18.97v18.97l-33.38-18.97Z"/>
    <g class="cls-4">
      <path class="cls-1" d="m21.25,71.56l18.97-33.38,58.42,101.66-32.62,18.97L21.25,71.56Z"/>
    </g>
    <g class="cls-6">
      <path class="cls-1" d="m22,3.28h37.93l18.97,33.38-37.93-.36L22,3.28Z"/>
    </g>
    <g class="cls-5">
      <path class="cls-1" d="m2.28,36.66L20.49,4.04l18.97,32.62-18.97,33.38L2.28,36.66Z"/>
    </g>
  </g>
</svg>